<svg width="25" height="25" viewBox="0 0 25 25" fill="none" xmlns="http://www.w3.org/2000/svg">
<path d="M10.9375 21.875C11.8004 21.875 12.5 21.1754 12.5 20.3125C12.5 19.4496 11.8004 18.75 10.9375 18.75C10.0746 18.75 9.375 19.4496 9.375 20.3125C9.375 21.1754 10.0746 21.875 10.9375 21.875Z" fill="#DA727B"/>
<path d="M18.2291 21.875C19.0921 21.875 19.7916 21.1754 19.7916 20.3125C19.7916 19.4496 19.0921 18.75 18.2291 18.75C17.3662 18.75 16.6666 19.4496 16.6666 20.3125C16.6666 21.1754 17.3662 21.875 18.2291 21.875Z" fill="#DA727B"/>
<path d="M13.5417 13.5418H15.625V10.4272H18.7396V8.34391H15.625V5.23975H13.5417V8.34391H10.4271V10.4272H13.5417V13.5418Z" fill="#DA727B"/>
<path d="M10.4167 17.7083H18.75C18.9599 17.7077 19.1646 17.6437 19.3375 17.5248C19.5104 17.4058 19.6433 17.2374 19.7188 17.0417L22.6667 9.375H20.4375L18.0313 15.625H11.1146L6.43754 4.40625C6.27896 4.02611 6.01126 3.7015 5.66826 3.47345C5.32525 3.2454 4.92235 3.12415 4.51046 3.125H2.08337V5.20834H4.51046L9.45837 17.0625C9.53652 17.2527 9.66923 17.4156 9.83977 17.5305C10.0103 17.6454 10.2111 17.7073 10.4167 17.7083Z" fill="#DA727B"/>
</svg>
