<svg width="44" height="42" viewBox="0 0 44 42" fill="white" xmlns="http://www.w3.org/2000/svg">
<path d="M41.4062 0.6875H2.59375C1.66035 0.6875 0.90625 1.41367 0.90625 2.3125V39.6875C0.90625 40.5863 1.66035 41.3125 2.59375 41.3125H41.4062C42.3396 41.3125 43.0938 40.5863 43.0938 39.6875V2.3125C43.0938 1.41367 42.3396 0.6875 41.4062 0.6875ZM39.7188 38.0625H30.0104V25.5805H35.4947L36.3174 19.4512H30.0104V15.5359C30.0104 13.7586 30.5219 12.55 33.1639 12.55H36.5336V7.06563C35.9482 6.98945 33.9496 6.82188 31.6188 6.82188C26.7566 6.82188 23.4291 9.68086 23.4291 14.9266V19.4461H17.9342V25.5754H23.4344V38.0625H4.28125V3.9375H39.7188V38.0625Z" fill="white"/>
</svg>
